<?xml version="1.0" standalone="no"?>
<!DOCTYPE svg PUBLIC "-//W3C//DTD SVG 20010904//EN"
 "http://www.w3.org/TR/2001/REC-SVG-20010904/DTD/svg10.dtd">
<svg version="1.0" xmlns="http://www.w3.org/2000/svg"
 width="260.000000pt" height="260.000000pt" viewBox="0 0 260.000000 260.000000"
 preserveAspectRatio="xMidYMid meet">
<metadata>
Created by potrace 1.11, written by Peter Selinger 2001-2013
</metadata>
<g transform="translate(0.000000,260.000000) scale(0.100000,-0.100000)"
fill="#000000" stroke="none">
<path d="M418 2583 c-5 -7 -7 -21 -4 -30 5 -15 4 -15 -9 1 -21 27 -19 6 2 -24
15 -22 15 -24 1 -12 -15 12 -17 11 -15 -10 0 -13 6 -26 12 -30 6 -5 4 -8 -5
-8 -13 0 -13 -1 0 -10 10 -6 11 -10 3 -10 -7 0 -13 -7 -13 -16 0 -9 5 -12 13
-8 9 6 9 4 -1 -8 -10 -13 -10 -17 0 -21 7 -3 3 -4 -9 -4 -23 1 -33 17 -12 17
8 0 8 4 0 13 -8 10 -8 16 1 25 8 8 6 10 -6 8 -18 -2 -53 -46 -37 -46 5 0 11 6
14 13 2 6 8 9 12 5 4 -4 2 -14 -5 -23 -12 -15 -4 -20 23 -16 4 0 7 -4 7 -10 0
-5 5 -7 12 -3 6 4 8 3 4 -4 -9 -14 -44 -7 -68 15 -17 16 -18 16 -12 0 3 -9 10
-17 16 -17 5 0 7 -4 4 -9 -4 -5 6 -8 20 -6 22 2 25 -1 21 -21 -2 -13 1 -26 7
-28 6 -3 4 -5 -4 -5 -32 2 -40 -2 -40 -20 0 -10 7 -21 15 -25 21 -8 18 -21 -5
-23 -11 -1 -18 2 -15 7 3 4 -2 11 -10 14 -13 5 -14 2 -4 -15 6 -11 16 -18 24
-16 7 3 18 0 24 -6 7 -7 12 -7 11 -2 -4 21 0 35 11 35 8 0 8 -5 -1 -15 -7 -8
-9 -15 -5 -15 4 0 2 -6 -4 -14 -10 -11 -8 -17 6 -25 10 -6 13 -11 6 -11 -8 0
-12 -13 -11 -35 1 -22 5 -32 12 -28 6 4 5 0 -2 -9 -10 -13 -10 -17 0 -21 7 -3
3 -4 -9 -4 -23 1 -33 17 -11 17 6 0 3 9 -7 20 -11 13 -14 20 -6 20 8 0 10 7 6
20 -4 13 -2 20 7 20 8 0 5 5 -6 11 -15 9 -16 13 -5 20 10 6 8 8 -8 6 -12 0
-19 -5 -17 -9 3 -4 1 -8 -4 -8 -6 0 -13 -8 -16 -17 -6 -15 -5 -15 13 1 12 11
21 14 26 7 3 -6 1 -11 -6 -11 -9 0 -9 -3 0 -14 8 -10 9 -16 1 -21 -5 -3 -10
-1 -10 4 0 6 -5 11 -11 11 -8 0 -8 -5 1 -15 10 -12 10 -18 0 -30 -8 -9 -8 -15
-2 -15 6 0 12 6 15 13 2 6 8 9 12 5 4 -4 2 -14 -5 -23 -12 -15 -4 -20 23 -16
4 0 7 -4 7 -10 0 -5 5 -7 12 -3 6 4 8 3 4 -4 -9 -14 -44 -7 -68 15 -17 16 -18
16 -12 0 3 -9 10 -17 16 -17 5 0 7 -4 4 -9 -4 -5 6 -8 20 -6 22 2 25 -1 21
-21 -2 -13 1 -26 7 -28 6 -3 4 -5 -4 -5 -30 2 -40 -1 -40 -15 0 -7 -7 -19 -15
-26 -8 -7 -15 -17 -15 -23 0 -10 25 16 47 50 11 16 12 16 12 1 1 -9 -4 -20
-10 -23 -6 -5 -4 -12 8 -20 14 -10 21 -11 33 -2 13 10 13 10 3 -4 -7 -9 -9
-20 -5 -25 4 -4 -1 -2 -10 5 -22 17 -24 -2 -3 -19 11 -9 13 -16 5 -24 -13 -13
-13 -29 -1 -21 6 3 8 -4 5 -17 -3 -13 -6 -29 -6 -35 -1 -7 -6 -13 -11 -13 -5
0 -7 7 -4 15 4 8 -8 28 -29 49 -18 18 -34 31 -34 26 0 -4 7 -13 15 -20 16 -14
15 -44 -3 -62 -7 -7 -12 -16 -12 -22 0 -5 9 1 20 14 11 12 17 27 14 31 -3 5
-1 9 5 9 15 0 23 -18 11 -25 -7 -5 -5 -12 7 -20 14 -10 21 -11 33 -2 13 10 13
10 3 -4 -7 -9 -9 -20 -5 -25 4 -4 -1 -2 -10 5 -22 17 -24 -2 -3 -19 11 -9 13
-16 5 -24 -12 -12 -13 -29 -1 -22 5 4 8 -2 6 -11 -4 -25 -25 -18 -57 18 -16
16 -28 25 -28 20 0 -5 7 -14 15 -21 8 -7 13 -22 11 -34 -2 -11 -1 -15 1 -8 6
18 17 15 39 -10 23 -26 25 -49 6 -56 -9 -3 -11 4 -8 21 3 16 -1 27 -10 31 -11
4 -12 2 -4 -13 7 -14 6 -22 -4 -30 -7 -6 -13 -22 -13 -35 0 -23 0 -23 18 -5
11 11 25 19 32 18 10 0 10 -2 0 -6 -7 -2 -13 -13 -13 -24 0 -10 6 -19 13 -19
9 0 9 -2 -1 -9 -17 -10 -17 -21 -2 -31 8 -5 6 -9 -6 -14 -10 -4 -15 -4 -12 0
4 4 3 15 -2 25 -6 11 -6 19 0 21 6 2 6 8 0 18 -8 13 -10 12 -10 -3 0 -10 -4
-16 -8 -13 -4 2 -14 -5 -21 -17 -8 -12 -10 -19 -6 -15 6 6 45 -21 45 -32 0 -3
-9 -6 -20 -7 -11 -1 -19 3 -17 9 1 6 -5 13 -13 15 -12 4 -12 3 -2 -5 8 -5 13
-13 13 -18 0 -5 5 -9 12 -9 6 0 18 -4 25 -9 7 -4 12 -4 11 1 -3 19 2 33 12 33
8 0 8 -5 -1 -15 -7 -8 -9 -15 -5 -15 4 0 2 -6 -4 -14 -10 -11 -8 -17 6 -25 10
-6 13 -11 6 -11 -8 0 -12 -13 -11 -35 1 -22 5 -32 12 -28 6 4 5 0 -2 -9 -10
-13 -10 -17 0 -21 7 -3 3 -4 -9 -4 -23 1 -33 17 -11 17 6 0 3 9 -7 20 -11 13
-14 20 -6 20 8 0 10 7 6 20 -4 13 -2 20 7 20 8 0 5 5 -6 11 -15 9 -16 13 -5
20 10 6 8 8 -8 6 -12 0 -19 -5 -17 -9 3 -4 1 -8 -4 -8 -6 0 -13 -8 -16 -17 -6
-15 -5 -15 13 1 12 11 21 14 26 7 3 -6 1 -11 -6 -11 -9 0 -9 -3 0 -14 8 -10 9
-16 1 -21 -5 -3 -10 -1 -10 4 0 6 -5 11 -11 11 -8 0 -8 -5 1 -15 10 -12 10
-18 0 -30 -8 -9 -8 -15 -2 -15 6 0 12 6 15 13 2 6 8 9 12 5 4 -4 2 -14 -5 -23
-12 -15 -4 -20 23 -16 4 0 7 -4 7 -10 0 -5 5 -7 12 -3 6 4 8 3 4 -4 -9 -14
-44 -7 -68 15 -17 16 -18 16 -12 0 3 -9 10 -17 16 -17 5 0 7 -4 4 -9 -4 -5 6
-8 20 -6 22 2 25 -1 21 -21 -2 -13 -1 -25 2 -27 3 -2 1 -2 -6 -1 -7 2 -19 -3
-27 -11 -7 -8 -17 -11 -21 -7 -4 4 -1 -3 6 -16 15 -23 29 -29 29 -11 0 5 5 7
12 3 7 -4 8 -3 4 4 -4 6 -14 8 -24 5 -15 -6 -15 -5 -2 11 8 11 16 14 18 7 2
-6 9 -8 15 -4 7 3 9 3 5 -2 -4 -4 0 -14 10 -22 16 -12 16 -13 0 -7 -19 7 -25
-11 -8 -21 8 -5 8 -11 0 -20 -8 -10 -7 -14 2 -18 10 -4 10 -6 1 -6 -7 -1 -13
-10 -13 -21 0 -11 6 -20 13 -20 8 0 8 -3 2 -8 -6 -4 -10 -17 -9 -30 1 -12 -3
-22 -8 -22 -6 0 -8 7 -5 15 4 8 1 17 -5 21 -7 5 -7 8 0 13 7 4 8 12 2 21 -8
13 -10 12 -10 -3 0 -10 -4 -15 -10 -12 -5 3 -11 1 -11 -4 -1 -6 -2 -15 -3 -21
0 -5 -7 -15 -13 -22 -7 -6 -13 -16 -13 -22 0 -5 9 1 20 14 11 12 17 27 14 31
-3 5 -1 9 5 9 15 0 23 -18 11 -25 -7 -5 -5 -12 7 -20 14 -10 21 -11 33 -2 13
10 13 10 3 -4 -7 -9 -9 -20 -5 -25 4 -4 -1 -2 -10 5 -22 17 -24 -2 -3 -19 11
-9 13 -16 5 -24 -13 -13 -13 -29 -1 -21 6 3 8 -4 5 -17 -3 -13 -6 -29 -6 -35
-1 -7 -6 -13 -11 -13 -5 0 -7 7 -4 15 4 8 -8 28 -29 49 -18 18 -34 31 -34 26
0 -4 7 -13 15 -20 16 -14 15 -44 -3 -62 -7 -7 -12 -16 -12 -22 0 -5 9 1 20 14
11 12 17 27 14 31 -3 5 -1 9 5 9 15 0 23 -18 11 -25 -7 -5 -5 -12 7 -20 14
-10 21 -11 33 -2 13 10 13 10 3 -4 -7 -9 -9 -20 -5 -25 4 -4 -1 -2 -10 5 -22
17 -24 -2 -3 -19 11 -9 13 -16 5 -24 -12 -12 -13 -29 -1 -22 5 4 8 -2 6 -11
-4 -25 -25 -18 -57 18 -16 16 -28 26 -28 22 0 -3 7 -15 16 -25 14 -15 15 -20
3 -35 -9 -11 -10 -14 -1 -9 6 4 13 2 13 -3 1 -6 2 -17 3 -23 1 -7 -8 -21 -19
-31 -23 -21 -3 -13 38 16 16 10 31 16 34 13 4 -3 1 -6 -5 -6 -7 0 -11 -15 -10
-35 1 -22 5 -32 12 -28 7 4 7 1 -1 -8 -16 -20 -17 -31 -1 -40 10 -7 10 -9 1
-9 -7 0 -13 -5 -13 -11 0 -5 6 -7 13 -3 9 6 9 4 -1 -8 -10 -13 -10 -17 0 -21
7 -3 3 -4 -9 -4 -23 1 -33 17 -12 17 8 0 8 5 -1 15 -10 12 -10 18 0 30 9 10 9
15 1 15 -6 0 -11 5 -11 11 0 5 5 7 12 3 7 -4 8 -3 4 5 -4 6 -12 9 -17 5 -5 -3
-16 0 -24 6 -11 9 -15 9 -15 1 0 -6 5 -11 11 -11 5 0 7 -5 4 -10 -4 -6 -1 -9
6 -8 6 2 14 -3 16 -10 3 -6 -1 -10 -9 -9 -7 2 -9 2 -5 -1 5 -2 1 -13 -9 -23
-9 -10 -12 -19 -6 -19 6 0 12 6 15 13 2 6 8 9 12 5 4 -4 2 -14 -5 -23 -12 -15
-4 -20 23 -16 4 0 7 -4 7 -10 0 -5 5 -7 12 -3 6 4 8 3 4 -4 -9 -14 -44 -7 -68
15 -17 16 -18 16 -12 0 3 -9 10 -17 16 -17 5 0 7 -4 4 -9 -4 -5 6 -8 20 -6 22
2 25 -1 21 -21 -2 -13 1 -26 7 -28 6 -3 4 -5 -4 -5 -32 2 -40 -2 -40 -20 0
-10 7 -21 15 -25 21 -8 18 -21 -5 -23 -11 -1 -18 2 -15 7 3 4 -2 11 -10 14
-13 5 -14 2 -4 -15 6 -11 16 -18 24 -16 7 3 18 0 24 -6 7 -7 12 -7 11 -2 -4
21 0 35 11 35 8 0 8 -5 -1 -15 -7 -8 -9 -15 -5 -15 4 0 2 -6 -4 -14 -10 -11
-8 -17 6 -25 10 -6 13 -11 6 -11 -8 0 -12 -13 -11 -35 1 -22 5 -32 12 -28 6 4
5 0 -2 -9 -10 -13 -10 -17 0 -21 7 -3 3 -4 -9 -4 -23 1 -33 17 -11 17 6 0 3 9
-7 20 -11 13 -14 20 -6 20 8 0 10 7 6 20 -4 13 -2 20 7 20 8 0 5 5 -6 11 -15
9 -16 13 -5 20 10 6 8 8 -8 6 -12 0 -19 -5 -17 -9 3 -4 1 -8 -4 -8 -6 0 -13
-8 -16 -17 -6 -15 -5 -15 13 1 12 11 21 14 26 7 3 -6 1 -11 -6 -11 -9 0 -9 -3
0 -14 8 -10 9 -16 1 -21 -5 -3 -10 -1 -10 4 0 6 -5 11 -12 11 -8 0 -6 -6 4
-16 15 -16 15 -18 -5 -37 l-22 -19 28 16 c28 17 37 10 15 -12 -9 -9 -9 -12 2
-13 8 -1 18 -1 23 0 4 0 7 -4 7 -10 0 -5 4 -8 8 -5 4 2 8 -4 8 -14 0 -10 -4
-17 -7 -14 -4 2 -10 0 -14 -6 -3 -5 -2 -10 4 -10 5 0 8 -8 7 -17 -2 -9 9 -28
23 -41 14 -13 20 -21 14 -17 -7 3 -13 2 -13 -3 0 -5 27 -9 60 -10 33 0 58 3
55 8 -3 5 -13 7 -23 4 -14 -5 -14 -4 -3 4 16 11 41 5 41 -10 0 -10 12 -8 55 7
16 5 17 5 5 -4 -12 -8 -8 -10 17 -8 17 1 29 5 26 10 -7 12 12 8 26 -6 11 -10
11 -8 0 10 -9 15 -17 19 -23 13 -6 -6 -15 -10 -20 -10 -6 0 0 7 13 16 19 14
25 14 33 3 8 -11 9 -10 5 3 -3 9 -1 19 6 22 7 4 -1 4 -18 1 l-30 -5 25 15 c14
8 19 14 13 15 -7 0 -13 5 -13 11 0 5 4 8 9 5 15 -10 7 28 -9 41 -13 11 -12 14
8 19 17 5 20 9 11 15 -8 4 -20 3 -29 -4 -10 -8 -9 -5 3 9 18 21 23 39 9 30 -4
-2 -9 4 -9 15 -1 10 4 19 12 19 8 0 17 4 20 10 3 5 0 7 -8 4 -8 -3 -18 0 -23
7 -4 7 -3 10 4 5 6 -3 13 -2 17 4 6 9 -8 15 -29 11 -5 -1 -3 6 5 15 8 9 13 27
11 38 -2 18 -1 19 8 6 10 -13 11 -12 6 3 -3 10 -6 21 -6 23 0 3 -4 3 -8 0 -4
-2 -9 4 -9 15 -1 10 4 19 12 19 8 0 17 4 20 10 3 5 0 7 -8 4 -8 -3 -18 0 -23
7 -4 7 -3 10 4 5 6 -3 13 -2 17 4 6 9 -8 15 -29 11 -5 -1 -3 6 5 15 8 9 13 27
11 38 -2 18 -1 19 8 6 10 -13 11 -12 6 3 -3 10 -6 21 -6 23 0 3 -4 3 -8 0 -4
-2 -9 4 -9 15 -1 10 4 19 12 19 8 0 17 4 20 10 3 5 0 7 -8 4 -8 -3 -18 0 -23
7 -4 7 -3 10 4 5 6 -3 13 -2 17 4 6 9 -8 15 -29 11 -5 -1 -3 6 5 15 7 9 12 28
11 41 -2 13 2 31 8 39 7 7 9 14 5 14 -4 0 -1 8 6 17 8 9 9 14 3 10 -7 -4 -12
2 -11 18 0 14 3 22 8 19 5 -3 6 2 3 10 -7 18 -25 22 -22 5 2 -6 -4 -14 -12
-16 -13 -4 -13 -3 0 6 8 6 11 11 5 11 -5 0 1 9 15 20 l25 20 -22 6 c-12 3 -24
13 -28 22 -5 14 -4 15 6 5 7 -7 17 -13 23 -13 5 0 6 3 3 7 -4 3 -2 12 5 20 8
11 7 12 -6 7 -12 -5 -16 0 -16 18 0 13 5 29 12 36 7 7 8 12 4 12 -5 0 -2 8 5
17 8 10 9 14 2 10 -7 -5 -12 0 -12 13 -1 11 -1 29 -2 40 0 11 -4 18 -10 15 -5
-4 -9 -1 -9 4 0 6 8 11 18 11 10 0 13 3 7 8 -15 10 -12 38 3 35 7 -2 12 2 12
7 0 6 7 10 15 10 8 0 15 6 15 13 0 9 2 9 8 0 5 -8 13 -9 22 -3 10 6 22 2 38
-13 18 -17 22 -18 16 -4 -5 13 -2 16 12 10 13 -5 15 -3 9 8 -7 12 -5 12 6 1
12 -11 12 -14 -1 -22 -11 -7 -10 -9 8 -7 12 1 21 6 18 13 -3 7 5 10 20 8 13
-1 24 2 24 7 0 5 5 9 11 9 5 0 8 -4 5 -8 -2 -4 -1 -14 4 -22 8 -13 11 -13 22
-1 11 12 10 13 -2 6 -9 -5 -12 -4 -7 1 5 5 13 10 18 10 5 1 10 2 12 4 7 6 36
7 33 1 -3 -4 -1 -13 4 -21 8 -13 11 -13 22 -1 11 11 11 13 -1 6 -9 -5 -12 -4
-8 3 4 5 16 8 28 5 12 -4 25 0 31 8 8 11 9 11 5 -3 -3 -9 0 -19 8 -22 10 -3
12 0 8 12 -5 15 -3 14 16 -2 19 -17 21 -17 15 -3 -5 13 -2 16 12 10 13 -5 15
-3 9 8 -7 12 -5 12 6 1 12 -11 12 -14 -1 -22 -11 -7 -10 -9 8 -7 12 1 21 6 18
13 -3 7 5 10 20 8 13 -1 24 2 24 7 0 5 5 9 11 9 5 0 8 -4 5 -8 -2 -4 -1 -14 4
-22 8 -13 11 -13 22 -1 11 12 10 12 -2 6 -13 -8 -13 -7 -1 8 15 18 26 23 16 7
-3 -5 1 -10 9 -10 8 0 18 5 21 10 4 6 11 8 16 4 5 -3 7 -10 3 -15 -3 -5 -10
-7 -15 -4 -5 4 -9 2 -9 -3 0 -6 11 -9 23 -8 13 0 24 6 23 13 -1 6 3 11 9 10 5
-1 9 -9 7 -17 -2 -13 -1 -13 10 0 17 19 39 24 32 7 -3 -8 2 -14 10 -14 8 0 12
6 9 14 -3 8 -2 13 3 12 5 -1 11 0 14 1 17 6 39 7 36 1 -3 -4 -1 -13 4 -21 8
-13 11 -13 22 -1 11 11 11 13 -1 6 -9 -5 -12 -4 -8 3 4 5 16 8 28 5 12 -4 25
0 31 8 8 11 9 11 5 -3 -3 -9 0 -19 8 -22 10 -3 12 0 8 12 -5 15 -3 14 16 -2
19 -17 21 -17 15 -3 -5 13 -2 16 12 10 13 -5 15 -3 9 8 -7 12 -5 12 6 1 12
-11 12 -14 -1 -22 -11 -7 -10 -9 8 -7 12 1 21 6 18 13 -3 7 5 10 20 8 13 -1
24 2 24 7 0 5 5 9 11 9 5 0 8 -4 5 -8 -2 -4 -1 -14 4 -22 8 -13 11 -13 22 -1
11 12 10 12 -2 6 -13 -8 -13 -7 -1 8 15 18 26 23 16 7 -3 -5 1 -10 9 -10 8 0
18 5 21 10 4 6 11 8 16 4 5 -3 7 -10 3 -15 -3 -5 -10 -7 -15 -4 -5 4 -9 2 -9
-3 0 -6 11 -9 23 -8 13 0 24 6 23 13 -1 6 4 11 9 10 6 -1 9 -8 7 -17 -2 -13
-1 -13 10 0 17 19 39 24 32 7 -3 -8 4 -13 20 -13 14 0 22 4 20 8 -3 5 -10 6
-15 3 -5 -4 -9 -1 -9 5 0 7 8 9 21 5 14 -5 25 -2 30 6 7 11 9 11 9 -3 0 -9 -6
-18 -13 -21 -6 -3 -2 -4 10 -4 12 1 19 5 17 9 -8 13 11 9 25 -4 10 -11 11 -10
5 5 -5 13 -2 16 12 10 13 -5 15 -3 9 8 -7 12 -5 12 6 1 12 -11 12 -14 -1 -22
-11 -7 -10 -9 8 -7 12 1 21 6 18 12 -2 6 7 11 19 11 13 0 21 -5 19 -11 -3 -5
2 -1 10 9 9 11 16 14 16 8 0 -7 3 -11 8 -11 21 4 32 -2 26 -13 -4 -7 4 -2 18
12 13 14 22 29 20 34 -3 5 1 6 8 1 10 -6 9 -11 -6 -22 -19 -14 -19 -15 1 -12
11 2 26 0 34 -5 9 -6 12 -5 7 2 -3 6 -2 13 4 17 5 3 10 1 10 -6 0 -7 3 -9 8
-5 13 14 10 225 -4 237 -7 6 -12 16 -10 22 1 7 1 9 -1 5 -3 -5 -11 -8 -19 -8
-8 0 -14 -4 -14 -10 0 -5 8 -7 18 -4 13 5 14 4 3 -4 -14 -10 2 -28 17 -18 11
6 9 -31 -2 -41 -4 -5 -6 -1 -4 7 2 9 -3 14 -12 12 -8 -2 -12 -1 -8 3 9 9 -23
45 -40 45 -7 0 -10 -5 -6 -12 5 -7 3 -8 -5 -3 -9 5 -10 10 -2 18 18 18 13 31
-6 16 -10 -8 -14 -9 -10 -2 4 6 3 15 -3 18 -6 4 -10 3 -9 -2 4 -24 -4 -25 -21
-3 -15 18 -18 20 -13 6 4 -13 3 -17 -5 -12 -7 4 -12 2 -12 -3 0 -18 -28 -12
-33 7 -4 15 -5 15 -6 1 -1 -21 -24 -30 -42 -17 -11 8 -11 9 3 4 10 -3 20 -1
22 3 3 5 -5 7 -17 7 -12 -1 -28 3 -36 8 -12 9 -12 7 -2 -13 9 -16 9 -21 2 -16
-7 4 -19 1 -28 -7 -9 -7 -14 -8 -10 -2 4 7 -5 19 -21 29 -27 18 -27 18 -10 -1
16 -19 16 -20 -2 -20 -10 0 -17 4 -14 7 2 4 0 10 -6 14 -5 3 -10 -1 -10 -9 0
-9 -5 -16 -10 -16 -6 0 -9 3 -9 8 5 28 -4 32 -16 7 -13 -26 -14 -27 -9 -5 5
23 4 24 -10 7 -14 -18 -15 -18 -37 4 -16 16 -21 18 -16 6 3 -9 2 -17 -3 -17
-6 0 -10 4 -10 9 0 5 -7 12 -16 15 -15 6 -14 3 1 -21 16 -24 16 -26 2 -14 -14
11 -20 11 -34 0 -10 -9 -14 -9 -10 -2 5 7 -2 17 -15 24 -20 11 -21 10 -11 -2
10 -12 8 -15 -6 -15 -11 0 -17 6 -14 13 3 7 0 13 -6 13 -6 0 -11 -7 -11 -15 0
-8 -4 -15 -10 -15 -5 0 -6 7 -3 17 4 10 2 14 -4 10 -6 -4 -13 -2 -15 5 -3 7
-7 5 -11 -6 -4 -10 -3 -15 3 -11 6 4 7 -1 3 -12 -6 -14 -9 -13 -19 12 -7 17
-13 23 -14 14 0 -21 -22 -30 -41 -17 -11 8 -11 9 3 4 10 -3 20 -1 22 3 3 5 -5
7 -17 7 -12 -1 -28 3 -36 8 -12 9 -12 7 -2 -13 9 -16 9 -21 2 -16 -7 4 -19 1
-28 -7 -9 -7 -14 -8 -10 -2 4 7 -5 19 -21 29 -27 18 -27 18 -10 -1 16 -19 16
-20 -2 -20 -10 0 -17 4 -14 7 2 4 0 10 -6 14 -5 3 -10 -1 -10 -9 0 -9 -4 -16
-10 -16 -5 0 -9 3 -9 8 5 28 -4 32 -16 7 -13 -26 -14 -27 -9 -5 5 23 4 24 -10
7 -14 -18 -15 -18 -37 4 -16 16 -21 18 -16 6 8 -22 -2 -22 -20 1 -8 9 -13 13
-10 7 2 -5 -4 -18 -14 -27 -17 -16 -18 -16 -24 3 -6 17 -8 17 -21 4 -21 -20
-30 -19 -13 2 10 11 10 14 1 9 -7 -4 -12 -2 -12 6 -1 7 -7 0 -14 -17 -9 -21
-14 -26 -20 -16 -7 11 -10 11 -18 0 -8 -11 -9 -11 -5 1 2 8 11 14 21 12 9 -2
16 1 16 7 0 15 -64 3 -77 -15 -10 -14 -12 -13 -18 5 -6 19 -8 19 -21 6 -21
-20 -30 -19 -13 2 10 11 10 14 2 9 -8 -4 -13 -2 -13 6 -1 7 -7 0 -14 -17 -9
-21 -14 -26 -20 -16 -7 11 -10 11 -18 0 -8 -11 -9 -11 -5 1 2 8 11 14 21 12 9
-2 16 1 16 7 0 15 -64 3 -77 -15 -10 -14 -12 -13 -18 5 -6 19 -8 19 -21 6 -21
-20 -30 -19 -13 2 10 11 10 14 2 9 -8 -4 -13 -2 -13 6 -1 7 -7 0 -14 -17 -9
-21 -14 -26 -20 -16 -7 11 -10 11 -18 0 -8 -11 -9 -11 -5 1 2 8 11 14 21 12 9
-2 16 1 16 7 0 15 -64 3 -76 -14 -10 -14 -13 -14 -24 0 -11 13 -10 14 6 9 14
-5 16 -4 8 5 -12 13 -47 4 -38 -10 3 -5 -2 -6 -10 -3 -9 3 -12 12 -8 22 5 15
4 15 -11 3 -15 -12 -17 -12 -11 3 5 12 2 15 -12 10 -12 -3 -10 0 5 9 20 12 21
15 7 20 -11 5 -15 3 -10 -5 4 -7 3 -8 -4 -4 -6 4 -9 13 -6 21 4 8 10 12 15 9
5 -3 9 0 9 5 0 6 -4 11 -9 11 -14 0 -20 26 -9 41 8 11 9 10 4 -4 -3 -10 -2
-16 3 -12 5 3 11 2 14 -2 2 -5 2 -1 -1 7 -2 8 -5 20 -5 27 0 7 -4 10 -9 7 -16
-10 -8 9 10 22 14 12 14 13 1 8 -11 -3 -18 2 -22 15 -4 18 -2 19 14 11 15 -8
17 -7 13 5 -4 8 -14 15 -23 15 -13 0 -14 2 -1 9 8 6 18 7 22 5 4 -3 5 2 2 11
-5 13 -9 13 -23 3 -11 -8 -10 -5 3 10 12 13 14 22 7 22 -7 0 -9 5 -5 11 4 8
12 3 21 -12 l14 -24 -4 30 c-2 17 -2 24 0 17 3 -7 9 -9 15 -6 6 4 8 3 5 -2 -3
-5 3 -10 13 -10 18 0 18 1 2 21 -9 11 -10 14 -2 8 18 -16 34 -17 24 -1 -4 7
-3 8 5 4 6 -4 9 -11 6 -16 -3 -5 4 -7 16 -5 13 3 26 10 31 17 4 7 8 8 8 3 0
-6 -5 -16 -11 -22 -8 -8 -7 -13 2 -18 8 -6 10 -4 4 5 -6 10 -4 12 8 7 9 -3 19
-1 23 5 4 7 3 8 -4 4 -8 -5 -10 -1 -5 10 4 11 8 13 11 6 5 -16 42 -15 42 1 0
8 3 8 9 -2 5 -8 18 -12 30 -8 12 3 24 0 28 -5 3 -6 2 -8 -3 -5 -6 3 -16 2 -23
-3 -9 -5 -2 -7 18 -6 34 1 37 5 19 26 -7 8 -3 6 10 -4 22 -19 22 -19 22 0 1
18 1 18 11 2 5 -10 15 -18 21 -18 6 0 5 7 -3 18 -13 15 -12 16 3 4 13 -10 17
-10 22 0 3 7 3 3 0 -10 -6 -25 -11 -26 57 9 16 8 19 8 13 -2 -5 -9 -2 -10 9
-6 9 3 19 1 23 -5 4 -6 3 -8 -3 -5 -5 3 -10 0 -10 -7 0 -11 4 -12 18 -3 9 6
15 18 12 26 -4 14 -4 14 6 1 9 -12 13 -13 20 -2 7 11 9 10 14 -3 4 -9 3 -13
-2 -10 -5 3 -13 0 -17 -7 -4 -7 -4 -10 1 -6 4 4 15 2 23 -5 13 -10 14 -9 8 1
-6 9 -1 11 18 8 18 -3 23 -1 19 10 -4 10 0 12 11 8 10 -4 16 -1 16 7 0 7 3 9
6 6 4 -4 1 -13 -5 -21 -9 -11 -9 -16 0 -22 8 -5 9 -3 4 6 -6 10 -4 12 8 7 9
-3 19 -1 23 5 4 7 3 8 -4 4 -8 -5 -10 -1 -5 10 4 11 8 13 11 6 5 -16 42 -15
42 1 0 9 2 9 9 -1 8 -13 46 -13 67 0 6 4 11 1 11 -7 0 -7 -8 -12 -17 -10 -9 2
-23 -1 -31 -6 -10 -6 -7 -8 11 -5 14 2 31 -2 39 -8 12 -8 13 -8 7 2 -6 9 -1
11 18 8 18 -3 23 -1 20 9 -4 10 0 12 15 8 12 -3 28 0 36 7 13 11 14 10 9 -4
-3 -9 -10 -16 -15 -16 -5 0 -9 -8 -9 -17 1 -17 1 -17 11 0 6 9 14 15 19 12 5
-3 12 0 16 6 5 8 3 9 -6 4 -8 -5 -11 -4 -6 3 4 6 13 9 21 5 8 -3 15 1 15 8 0
7 3 9 6 6 4 -4 1 -13 -5 -21 -9 -11 -9 -16 0 -22 8 -5 9 -3 4 6 -6 10 -4 12 8
7 9 -3 19 -1 23 5 4 7 3 8 -4 4 -8 -5 -10 -1 -5 10 4 11 8 13 11 6 5 -16 42
-15 42 1 0 8 3 8 9 -2 5 -8 18 -12 30 -8 12 3 24 0 28 -5 3 -6 2 -8 -3 -5 -6
3 -16 2 -23 -3 -9 -5 -2 -7 18 -6 34 1 37 5 19 26 -7 8 -3 6 10 -4 22 -19 22
-19 22 0 1 18 1 18 11 2 5 -10 15 -18 21 -18 6 0 5 7 -3 18 -13 15 -12 16 3 4
13 -10 17 -10 22 0 3 7 3 2 0 -12 -5 -20 -4 -23 7 -12 7 6 24 12 39 12 19 0
22 -3 10 -9 -8 -6 -18 -7 -24 -4 -5 3 -6 1 -2 -5 11 -18 56 7 48 27 -3 9 5 3
19 -13 23 -26 27 -27 47 -15 17 11 19 16 9 29 -9 12 -9 13 3 3 16 -15 34 -17
26 -5 -3 5 1 9 8 9 7 0 13 -6 13 -13 0 -7 -4 -11 -8 -8 -4 2 -11 -1 -15 -8 -4
-7 -4 -10 1 -6 4 4 15 2 23 -5 13 -9 14 -9 8 1 -8 14 19 12 43 -2 9 -6 12 -5
8 1 -6 10 14 24 38 28 6 0 9 7 7 15 -3 11 0 11 12 0 14 -11 20 -8 18 10 0 3 9
7 20 7 29 3 33 10 17 29 -13 16 -12 16 7 4 11 -7 21 -19 21 -26 0 -8 -2 -12
-5 -9 -2 2 -19 -3 -36 -12 -17 -10 -34 -16 -38 -15 -4 1 -5 -5 -1 -14 5 -15 7
-15 15 -1 5 10 15 14 25 10 12 -5 14 -3 8 7 -6 10 -2 12 16 8 l25 -4 0 128 0
127 -23 -14 c-19 -13 -26 -13 -43 -3 -11 7 -18 18 -16 24 6 15 -66 7 -76 -9
-5 -7 -8 -3 -8 13 -1 25 -1 25 -10 3 -5 -13 -15 -23 -22 -23 -9 0 -9 3 2 11
11 8 6 9 -22 6 -31 -5 -36 -3 -31 11 4 12 0 11 -13 -5 -18 -20 -21 -20 -31 -5
-11 15 -12 15 -13 -3 -1 -18 -2 -17 -15 5 -8 14 -14 19 -15 11 0 -11 -3 -11
-17 0 -16 13 -17 12 -4 -3 7 -10 18 -15 25 -11 6 3 8 2 3 -2 -9 -11 -48 -14
-42 -4 3 4 -2 10 -11 13 -8 3 -13 2 -10 -3 3 -5 -1 -12 -10 -15 -8 -3 -13 -2
-10 2 2 4 1 14 -5 22 -7 13 -9 12 -9 -1 0 -9 -6 -19 -14 -22 -11 -4 -14 0 -11
16 4 21 4 21 -10 3 -14 -18 -16 -18 -33 -3 -10 9 -23 17 -28 17 -5 0 -3 -4 4
-9 10 -6 9 -11 -4 -22 -10 -8 -15 -9 -11 -3 4 7 0 15 -9 18 -8 3 -13 2 -10 -3
3 -5 -1 -12 -10 -15 -8 -3 -13 -2 -10 2 2 4 1 14 -5 22 -7 13 -9 12 -9 -1 0
-9 -6 -19 -14 -22 -11 -4 -14 0 -11 16 4 21 4 21 -10 3 -14 -18 -16 -18 -33
-3 -10 9 -23 17 -28 17 -5 0 -3 -4 4 -9 10 -6 9 -11 -4 -22 -10 -8 -15 -9 -11
-3 4 7 0 15 -9 18 -8 3 -13 2 -10 -3 3 -5 -1 -12 -10 -15 -8 -3 -13 -2 -10 2
2 4 1 14 -5 22 -7 13 -9 12 -9 -1 0 -9 -6 -19 -14 -22 -11 -4 -14 0 -11 16 4
21 4 21 -10 3 -14 -18 -16 -18 -33 -3 -10 9 -23 17 -28 17 -5 0 -3 -4 4 -9 10
-6 9 -11 -4 -22 -10 -8 -15 -9 -11 -3 4 7 0 15 -9 18 -8 3 -13 2 -10 -3 3 -5
-1 -12 -10 -15 -8 -3 -13 -2 -10 2 2 4 1 14 -5 22 -7 13 -9 12 -9 -1 0 -9 -6
-19 -14 -22 -11 -4 -14 0 -11 16 4 21 4 21 -10 3 -14 -19 -15 -19 -37 0 -12
10 -18 14 -15 7 4 -6 3 -14 -3 -18 -5 -3 -10 2 -11 12 0 14 -2 14 -9 -4 -5
-13 -12 -23 -15 -23 -4 0 -4 3 -2 8 3 4 -1 13 -9 20 -8 7 -14 9 -14 5 0 -5 -9
-9 -20 -10 -11 -1 -18 2 -15 7 3 4 -6 3 -19 -3 -13 -7 -22 -16 -18 -22 3 -5
-2 -4 -11 4 -11 8 -28 11 -47 8 -24 -5 -28 -4 -23 11 5 13 1 11 -13 -5 -18
-20 -21 -20 -31 -5 -11 15 -12 15 -13 -3 -1 -18 -2 -17 -15 5 -8 14 -14 20
-15 15 0 -6 -9 -11 -20 -12 -11 -1 -18 2 -15 7 3 4 -6 3 -19 -3 -13 -7 -22
-16 -18 -22 3 -5 -2 -4 -11 4 -11 9 -29 11 -50 7 -30 -5 -31 -5 -13 9 11 8 15
15 10 15 -6 0 -20 -9 -32 -20 -20 -19 -28 -15 -23 13 1 5 -3 6 -9 2 -5 -3 -10
-14 -10 -23 -1 -13 -5 -11 -16 8 -8 14 -13 17 -10 8 3 -10 1 -20 -4 -23 -6 -4
-10 2 -10 12 0 15 -2 16 -10 3 -6 -10 -10 -11 -10 -2 0 6 -5 12 -11 12 -5 0
-7 -4 -4 -10 3 -6 -1 -7 -10 -3 -9 3 -13 9 -8 12 5 3 9 18 8 34 -1 15 3 27 9
27 6 0 4 5 -4 10 -12 8 -13 12 -2 19 11 7 10 9 -3 14 -9 4 -14 3 -11 -1 3 -5
-1 -9 -9 -9 -13 0 -13 3 0 17 16 18 20 35 7 26 -4 -2 -9 4 -9 15 -1 10 4 19
12 19 8 0 17 4 20 10 3 5 0 7 -8 4 -8 -3 -18 0 -23 7 -4 8 -3 10 4 5 7 -4 12
-1 12 9 0 10 -5 14 -12 10 -7 -4 -5 0 5 8 12 10 14 16 6 19 -7 2 -13 12 -15
22 -1 10 0 16 3 13 2 -3 14 4 25 15 11 11 26 17 33 14 8 -3 17 -1 20 4 4 6 12
10 18 10 7 0 6 -4 -3 -10 -8 -5 -13 -10 -10 -11 3 0 13 -2 23 -4 10 -2 14 1
11 7 -4 7 -2 8 5 4 6 -4 19 -2 27 5 12 10 13 9 7 -7 -6 -17 -5 -18 12 -4 17
14 17 13 12 -10 -6 -20 -4 -19 8 5 8 18 14 23 15 13 0 -22 16 -32 26 -17 5 8
3 9 -7 4 -12 -8 -12 -6 0 8 13 16 36 14 26 -3 -3 -5 0 -12 6 -16 8 -4 9 -3 5
4 -4 7 -2 12 4 12 6 0 8 5 4 12 -4 7 -3 8 5 4 6 -4 8 -13 4 -19 -3 -7 3 -4 15
7 18 16 22 16 27 4 8 -20 37 -19 30 1 -4 13 -2 12 9 -1 15 -20 36 -24 36 -7 0
5 -5 7 -12 3 -7 -5 -8 -3 -3 6 7 11 10 10 19 -1 17 -22 40 -23 32 -2 -6 17 -5
17 8 1 15 -20 36 -24 36 -7 0 5 -5 7 -12 3 -7 -5 -8 -3 -3 6 7 11 10 10 19 -1
17 -22 40 -23 32 -2 -6 17 -5 17 8 1 15 -20 36 -24 36 -7 0 5 -5 7 -12 3 -7
-5 -8 -3 -3 6 7 11 10 10 19 -1 17 -22 40 -23 32 -2 -4 12 1 10 15 -7 11 -14
18 -20 15 -14 -3 7 1 17 9 24 13 11 14 10 8 -6 -6 -17 -5 -18 12 -4 17 14 18
13 12 -3 -4 -11 -3 -16 3 -12 6 3 10 14 11 23 0 12 3 10 10 -6 5 -13 13 -20
19 -17 15 9 12 17 -2 9 -10 -5 -10 -4 -1 6 15 16 46 23 37 9 -3 -5 -10 -6 -16
-3 -7 4 -8 2 -4 -4 4 -8 14 -9 24 -4 9 5 24 8 32 7 8 -1 21 3 28 9 9 6 12 6
10 -3 -2 -8 5 -15 15 -16 9 -2 17 2 17 8 0 5 3 7 7 4 3 -4 12 -2 20 5 11 9 12
7 6 -8 -6 -17 -5 -18 12 -4 17 14 18 13 12 -2 -10 -26 2 -22 13 5 6 15 9 17 9
6 1 -22 28 -45 28 -24 0 8 -5 11 -11 8 -6 -3 -5 0 1 7 15 16 46 23 37 9 -3 -5
-10 -6 -16 -3 -7 4 -8 2 -4 -4 4 -6 14 -8 23 -5 12 5 14 3 8 -7 -5 -9 -4 -11
4 -6 6 4 9 11 6 16 -3 4 3 7 12 5 10 -1 24 2 31 8 10 8 12 7 10 -2 -2 -8 5
-15 15 -16 9 -2 17 2 17 8 0 5 3 7 7 4 3 -4 12 -2 20 5 11 9 12 7 6 -8 -6 -17
-5 -18 12 -4 17 14 18 13 12 -2 -10 -26 2 -22 13 5 7 17 9 18 9 5 1 -18 12
-23 25 -11 15 15 42 11 59 -10 10 -12 16 -16 12 -9 -3 6 -1 12 4 12 6 0 11 5
11 11 0 5 -4 8 -9 4 -5 -3 -12 -1 -15 4 -8 12 23 8 32 -5 13 -18 35 -16 28 3
-6 17 -5 17 8 1 15 -20 36 -24 36 -7 0 5 -5 7 -12 3 -7 -5 -8 -3 -3 6 7 11 10
10 19 -1 17 -22 40 -23 32 -2 -6 17 -5 17 8 1 15 -20 36 -24 36 -7 0 5 -5 7
-12 3 -7 -5 -8 -3 -3 6 6 10 11 9 21 -4 7 -10 15 -13 18 -7 4 6 13 8 21 5 8
-4 12 -11 8 -17 -4 -6 -1 -7 8 -1 8 4 19 9 24 10 6 1 19 6 29 10 15 6 17 4 11
-7 -5 -8 -4 -11 0 -6 11 10 16 39 6 32 -4 -2 -8 2 -8 10 0 8 3 13 5 10 3 -3
14 2 24 12 11 9 18 11 18 5 0 -7 -5 -12 -11 -12 -8 0 -7 -6 2 -17 10 -11 10
-14 2 -9 -7 4 -13 3 -13 -2 0 -6 6 -12 13 -15 10 -4 13 21 13 119 0 121 -3
129 -33 125 -6 -1 -18 8 -26 19 -7 11 -17 17 -20 13 -4 -3 -7 0 -7 7 0 7 -3
10 -7 6 -8 -8 41 -53 68 -61 11 -4 19 -10 19 -15 0 -11 -54 16 -70 35 -8 9
-21 13 -34 10 -16 -5 -18 -4 -6 4 24 16 3 25 -60 26 -54 1 -58 -1 -48 -18 5
-10 7 -21 4 -25 -3 -3 -6 1 -6 9 0 12 -2 11 -11 -1 -9 -12 -10 -12 -5 4 5 14
2 17 -10 12 -8 -3 -18 -6 -20 -6 -3 0 -3 -4 1 -9 3 -5 0 -13 -6 -17 -7 -4 -9
-3 -5 4 8 14 -11 25 -26 15 -23 -14 -34 -11 -35 11 -2 20 -1 20 12 3 7 -10 16
-14 19 -8 3 5 0 11 -6 14 -7 2 -1 4 14 4 18 0 25 -4 21 -11 -4 -6 2 -4 13 4
10 8 20 15 22 16 1 0 -29 0 -67 0 -49 0 -65 -4 -55 -11 10 -8 10 -13 -4 -25
-14 -13 -15 -12 -9 4 6 14 4 17 -9 12 -11 -4 -15 -2 -11 7 3 9 -7 12 -33 12
-34 0 -37 -2 -28 -18 5 -10 7 -21 4 -25 -3 -3 -6 1 -6 9 0 12 -2 11 -11 -1 -9
-12 -10 -12 -5 4 5 14 2 17 -10 12 -8 -3 -18 -6 -20 -6 -3 0 -3 -4 1 -9 3 -5
0 -13 -6 -17 -7 -4 -9 -3 -5 4 8 14 -11 25 -26 15 -23 -14 -34 -11 -35 11 -2
20 -1 20 12 3 7 -10 16 -14 19 -8 3 5 0 11 -6 14 -7 2 -1 4 14 4 18 0 25 -4
21 -11 -4 -6 2 -4 13 4 10 8 20 15 22 16 1 0 -29 0 -67 0 -49 0 -65 -4 -55
-11 10 -8 10 -13 -4 -25 -14 -13 -15 -12 -9 4 6 14 4 17 -9 12 -11 -4 -15 -2
-11 7 3 9 -7 12 -33 12 -34 0 -37 -2 -28 -18 5 -10 7 -21 4 -25 -3 -3 -6 1 -6
9 0 12 -2 11 -11 -1 -9 -12 -10 -12 -5 4 5 14 2 17 -10 12 -8 -3 -18 -6 -20
-6 -3 0 -3 -4 1 -9 3 -5 0 -13 -6 -17 -7 -4 -9 -3 -5 4 8 14 -11 25 -26 15
-23 -14 -34 -11 -35 11 -2 20 -1 20 12 3 7 -10 16 -14 19 -8 3 5 0 11 -6 14
-7 2 -1 4 14 4 18 0 25 -4 21 -11 -4 -6 2 -4 13 4 10 8 20 15 22 16 1 0 -29 0
-67 0 -49 0 -65 -4 -55 -11 10 -8 10 -13 -4 -25 -14 -13 -15 -12 -9 4 6 14 4
17 -9 12 -11 -4 -15 -2 -11 7 3 9 -7 12 -33 12 -34 0 -37 -2 -28 -18 5 -10 7
-21 4 -25 -3 -3 -6 1 -6 9 0 12 -2 11 -11 -1 -9 -12 -10 -12 -5 4 5 14 2 17
-10 12 -8 -3 -18 -6 -20 -6 -3 0 -3 -4 1 -9 3 -5 0 -13 -6 -17 -7 -4 -9 -3 -5
4 8 14 -11 25 -26 15 -23 -14 -34 -11 -35 11 -2 20 -1 20 12 3 7 -10 16 -14
19 -8 3 5 0 11 -6 14 -7 2 -1 4 14 4 18 0 25 -4 21 -11 -4 -6 2 -4 13 4 10 8
20 15 22 16 1 0 -29 0 -67 0 -49 0 -65 -4 -55 -11 10 -8 10 -13 -4 -25 -14
-13 -15 -12 -9 4 6 14 4 17 -9 12 -11 -4 -15 -2 -11 7 3 9 -7 12 -33 12 -34 0
-37 -2 -28 -18 5 -10 7 -21 4 -25 -3 -3 -6 1 -6 9 0 12 -2 11 -11 -1 -9 -12
-10 -12 -5 4 5 14 2 17 -10 12 -8 -3 -18 -6 -20 -6 -3 0 -3 -4 1 -9 3 -5 0
-13 -6 -17 -7 -4 -9 -3 -5 4 8 14 -11 25 -26 15 -23 -14 -34 -11 -35 11 -2 20
-1 20 12 3 7 -10 16 -14 19 -8 3 5 0 11 -6 14 -7 2 -1 4 14 4 18 0 25 -4 21
-11 -4 -6 2 -4 13 4 10 8 20 15 22 16 1 0 -29 0 -67 0 -49 0 -65 -4 -55 -11
10 -8 10 -13 -4 -25 -14 -13 -15 -12 -9 4 6 14 4 17 -9 12 -11 -4 -15 -2 -11
7 3 9 -7 12 -33 12 -34 0 -37 -2 -28 -18 5 -10 7 -21 4 -25 -3 -3 -6 1 -6 9 0
12 -2 11 -11 -1 -9 -12 -10 -12 -5 4 5 14 2 17 -10 12 -8 -3 -18 -6 -20 -6 -3
0 -3 -4 1 -9 3 -5 0 -13 -6 -17 -7 -4 -9 -3 -5 4 8 14 -11 25 -26 15 -23 -14
-34 -11 -35 11 -2 20 -1 20 12 3 7 -10 16 -14 19 -8 3 5 0 11 -6 14 -7 2 -1 4
14 4 18 0 25 -4 21 -11 -4 -6 2 -4 13 4 10 8 20 15 22 16 1 0 -29 0 -67 0 -49
0 -65 -4 -55 -11 10 -8 10 -13 -4 -25 -14 -13 -15 -12 -9 4 6 14 4 17 -9 12
-11 -4 -15 -2 -11 6 3 10 -10 13 -50 14 -30 1 -49 -2 -43 -6 6 -4 22 -6 35 -4
17 1 22 -2 18 -12 -3 -8 -10 -11 -16 -7 -15 9 -68 12 -62 4 2 -4 -6 -7 -18 -6
-12 1 -23 7 -23 13 -3 24 -4 26 -16 14 -8 -8 -8 -15 3 -29 12 -16 12 -17 -2
-6 -9 7 -19 10 -22 7 -4 -4 -5 2 -3 13 3 15 -2 19 -20 19 -14 0 -30 -6 -36
-13z m42 -5 c0 -4 -8 -8 -17 -8 -15 0 -16 -2 -3 -10 8 -5 10 -10 4 -10 -16 0
-23 10 -18 24 5 14 34 17 34 4z m192 -20 c-8 -8 -9 -4 -5 13 4 13 8 18 11 10
2 -7 -1 -18 -6 -23z m240 0 c-8 -8 -9 -4 -5 13 4 13 8 18 11 10 2 -7 -1 -18
-6 -23z m240 0 c-8 -8 -9 -4 -5 13 4 13 8 18 11 10 2 -7 -1 -18 -6 -23z m240
0 c-8 -8 -9 -4 -5 13 4 13 8 18 11 10 2 -7 -1 -18 -6 -23z m240 0 c-8 -8 -9
-4 -5 13 4 13 8 18 11 10 2 -7 -1 -18 -6 -23z m240 0 c-8 -8 -9 -4 -5 13 4 13
8 18 11 10 2 -7 -1 -18 -6 -23z m258 19 c0 -5 7 -4 15 3 10 9 15 9 15 1 0 -6
-5 -11 -11 -11 -5 0 -7 -6 -3 -12 6 -10 4 -10 -7 0 -16 14 -33 16 -24 2 10
-16 -1 -12 -18 8 -15 17 -15 18 8 18 14 0 25 -4 25 -9z m105 -57 c3 -6 -1 -7
-9 -4 -18 7 -21 14 -7 14 6 0 13 -4 16 -10z m45 -40 c0 -5 -2 -10 -4 -10 -3 0
-8 5 -11 10 -3 6 -1 10 4 10 6 0 11 -4 11 -10z m8 -42 c-2 -6 -14 -15 -26 -19
-16 -6 -20 -5 -16 6 3 8 12 11 20 8 8 -3 14 0 14 6 0 11 -12 15 -40 12 -13 -2
-13 0 -1 8 18 11 54 -5 49 -21z m-14 -53 c-15 -23 -33 -37 -20 -16 4 5 0 12
-6 14 -8 3 -6 6 5 6 9 1 17 6 17 11 0 6 5 10 10 10 6 0 3 -11 -6 -25z m-47
-60 c0 -8 -2 -13 -5 -10 -3 2 -13 0 -23 -5 -12 -7 -20 -6 -25 2 -4 6 -3 8 3 5
6 -4 19 0 29 8 10 8 19 15 20 15 0 0 1 -7 1 -15z m-1815 -39 c7 4 8 2 4 -4 -4
-7 -1 -12 6 -12 9 0 9 -3 -2 -10 -19 -12 -46 12 -34 31 6 10 9 10 12 1 2 -7 9
-9 14 -6z m284 -251 c-3 -23 -12 -26 -13 -5 -1 11 2 20 7 20 4 0 7 -7 6 -15z
m269 -55 c3 -5 1 -10 -4 -10 -6 0 -11 5 -11 10 0 6 2 10 4 10 3 0 8 -4 11 -10z
m45 4 c0 -8 -19 -13 -24 -6 -3 5 1 9 9 9 8 0 15 -2 15 -3z m195 -4 c3 -5 1
-10 -4 -10 -6 0 -11 5 -11 10 0 6 2 10 4 10 3 0 8 -4 11 -10z m45 4 c0 -8 -19
-13 -24 -6 -3 5 1 9 9 9 8 0 15 -2 15 -3z m944 -2 c3 -5 -1 -9 -9 -9 -8 0 -12
4 -9 9 3 4 7 8 9 8 2 0 6 -4 9 -8z m-1777 -32 c-1 -11 -5 -20 -9 -20 -10 0
-10 4 -2 24 8 22 13 20 11 -4z m1864 -14 c-9 -11 -9 -15 1 -19 8 -3 8 -6 2 -6
-6 -1 -18 7 -25 16 -10 11 -10 14 -1 9 6 -4 12 -2 12 3 0 6 5 11 11 11 8 0 8
-4 0 -14z m9 -58 c0 -6 -7 -4 -16 3 -15 12 -16 11 -10 -11 6 -21 5 -22 -4 -7
-6 9 -8 21 -5 27 7 11 35 2 35 -12z m0 -37 c0 -14 -26 -20 -41 -9 -11 8 -11 9
3 4 10 -3 20 -1 23 4 8 12 15 13 15 1z m-30 -36 c0 -2 -6 -5 -13 -8 -8 -3 -14
1 -14 8 0 7 6 11 14 8 7 -3 13 -6 13 -8z m30 -5 c0 -5 -4 -10 -10 -10 -5 0
-10 5 -10 10 0 6 5 10 10 10 6 0 10 -4 10 -10z m-1013 -85 c0 -8 -4 -12 -9 -9
-5 3 -6 10 -3 15 9 13 12 11 12 -6z m240 0 c0 -8 -4 -12 -9 -9 -5 3 -6 10 -3
15 9 13 12 11 12 -6z m497 -6 c3 1 6 -2 6 -6 0 -18 -25 -6 -28 12 -2 15 -1 16
6 7 5 -8 12 -13 16 -13z m130 2 c-8 -8 -34 -10 -38 -2 -3 4 6 7 19 7 14 0 22
-2 19 -5z m-1744 -145 c0 -3 -4 -8 -10 -11 -5 -3 -10 -1 -10 4 0 6 5 11 10 11
6 0 10 -2 10 -4z m-6 -92 c5 -14 4 -15 -9 -4 -17 14 -19 20 -6 20 5 0 12 -7
15 -16z m1756 -84 c0 -5 -5 -10 -11 -10 -5 0 -7 5 -4 10 3 6 8 10 11 10 2 0 4
-4 4 -10z m127 -116 c4 4 1 12 -7 17 -13 9 -13 10 0 6 21 -5 19 -31 -2 -35
-10 -2 -18 2 -18 8 0 6 -4 9 -8 6 -5 -3 -9 1 -9 9 0 13 4 12 19 -2 10 -9 21
-13 25 -9z m3 -39 c-7 -8 -8 -15 -2 -15 5 0 9 -16 9 -35 -1 -19 -3 -32 -6 -30
-2 3 -10 0 -18 -6 -8 -7 -13 -8 -13 -1 0 5 7 12 15 16 8 3 15 10 15 16 0 6 -6
8 -12 4 -10 -6 -10 -4 0 8 8 10 9 19 4 22 -10 6 -27 -22 -23 -37 1 -5 -3 -6
-9 -2 -8 5 -8 11 0 20 7 8 8 20 4 26 -4 8 -3 9 5 5 6 -4 14 0 17 8 3 9 11 16
16 16 6 0 5 -6 -2 -15z m-1591 -219 c9 -11 9 -16 -1 -22 -7 -4 -10 -4 -6 1 4
4 3 14 -3 22 -6 7 -9 13 -6 13 2 0 10 -6 16 -14z m8 -50 c0 -8 -6 -12 -15 -9
-11 5 -11 7 0 14 7 5 13 9 14 9 0 0 1 -6 1 -14z m3 -200 c0 -2 -8 -10 -17 -17
-16 -13 -17 -12 -4 4 13 16 21 21 21 13z m-3 -41 c0 -8 -4 -12 -9 -9 -5 3 -6
10 -3 15 9 13 12 11 12 -6z m-301 -49 c3 -9 13 -12 22 -9 13 4 12 2 -3 -10
-23 -19 -39 -22 -30 -7 4 6 1 17 -5 25 -9 11 -9 15 -1 15 6 0 14 -6 17 -14z
m16 -310 c7 4 8 2 4 -4 -4 -7 -1 -12 6 -12 9 0 9 -3 -2 -10 -19 -12 -46 12
-34 31 6 10 9 10 12 1 2 -7 9 -9 14 -6z m176 -351 c-3 -3 -9 2 -12 12 -6 14
-5 15 5 6 7 -7 10 -15 7 -18z m-78 10 c0 -7 -30 -13 -34 -7 -3 4 4 9 15 9 10
1 19 0 19 -2z"/>
<path d="M526 2583 c-4 -11 -1 -11 14 -3 24 13 25 17 5 17 -8 0 -16 -6 -19
-14z"/>
<path d="M2228 2578 c5 -5 16 -8 23 -6 8 3 3 7 -10 11 -17 4 -21 3 -13 -5z"/>
<path d="M353 2565 c0 -8 4 -12 9 -9 5 3 6 10 3 15 -9 13 -12 11 -12 -6z"/>
<path d="M325 2539 c-4 -6 -5 -12 -2 -15 2 -3 7 2 10 11 7 17 1 20 -8 4z"/>
<path d="M374 2543 c7 -12 -5 -18 -27 -14 -5 1 -6 -3 -2 -9 3 -5 1 -10 -6 -10
-7 0 -9 -3 -6 -6 4 -4 13 -1 22 6 24 20 18 -2 -10 -34 -14 -16 -25 -34 -25
-39 0 -6 11 4 25 23 14 19 25 29 25 22 0 -7 5 -12 11 -12 8 0 8 5 -1 15 -7 8
-8 15 -3 15 12 0 10 36 -2 47 -4 5 -5 2 -1 -4z"/>
<path d="M330 2320 c-8 -16 -8 -18 5 -14 8 3 12 11 8 17 -4 6 0 8 10 4 9 -3
18 -3 21 1 3 4 -4 9 -15 9 -10 1 -24 -7 -29 -17z"/>
<path d="M965 2300 c-3 -5 -1 -10 4 -10 6 0 11 5 11 10 0 6 -2 10 -4 10 -3 0
-8 -4 -11 -10z"/>
<path d="M703 2293 c-18 -6 -16 -20 2 -20 8 0 11 5 8 10 -4 6 0 8 10 4 9 -3
18 -3 21 1 5 9 -23 12 -41 5z"/>
<path d="M1446 2288 c3 -5 10 -6 15 -3 13 9 11 12 -6 12 -8 0 -12 -4 -9 -9z"/>
<path d="M1686 2288 c3 -5 10 -6 15 -3 13 9 11 12 -6 12 -8 0 -12 -4 -9 -9z"/>
<path d="M1866 2288 c3 -5 10 -6 15 -3 13 9 11 12 -6 12 -8 0 -12 -4 -9 -9z"/>
<path d="M682 2146 c7 -8 15 -12 17 -11 5 6 -10 25 -20 25 -5 0 -4 -6 3 -14z"/>
<path d="M330 2000 c-8 -16 -8 -18 5 -14 8 3 12 11 8 17 -4 6 0 8 10 4 9 -3
18 -3 21 1 3 4 -4 9 -15 9 -10 1 -24 -7 -29 -17z"/>
<path d="M2219 1980 c-8 -6 -8 -9 1 -15 7 -4 18 -1 26 7 13 13 13 15 0 15 -8
0 -20 -4 -27 -7z"/>
<path d="M348 1913 c7 -3 16 -2 19 1 4 3 -2 6 -13 5 -11 0 -14 -3 -6 -6z"/>
<path d="M334 1888 c2 -7 9 -14 17 -14 8 -1 20 -2 27 -3 7 0 11 -5 7 -11 -3
-5 -13 -6 -22 -3 -11 4 -8 -2 8 -20 24 -28 41 -38 19 -12 -9 11 -9 19 -2 28 9
10 6 17 -8 30 -22 19 -34 22 -25 7 3 -5 2 -10 -4 -10 -5 0 -12 5 -14 10 -3 6
-4 5 -3 -2z"/>
<path d="M348 1753 c7 -3 16 -2 19 1 4 3 -2 6 -13 5 -11 0 -14 -3 -6 -6z"/>
<path d="M334 1728 c2 -7 9 -14 17 -14 8 -1 20 -2 27 -3 7 0 11 -5 7 -11 -3
-5 -13 -6 -22 -3 -11 4 -8 -2 8 -20 24 -28 41 -38 19 -12 -9 11 -9 19 -2 28 9
10 6 17 -8 30 -22 19 -34 22 -25 7 3 -5 2 -10 -4 -10 -5 0 -12 5 -14 10 -3 6
-4 5 -3 -2z"/>
<path d="M2256 1707 c3 -10 9 -15 12 -12 3 3 0 11 -7 18 -10 9 -11 8 -5 -6z"/>
<path d="M900 1700 c0 -5 5 -10 11 -10 5 0 7 5 4 10 -3 6 -8 10 -11 10 -2 0
-4 -4 -4 -10z"/>
<path d="M1115 1700 c-4 -6 -11 -7 -17 -4 -7 4 -8 2 -4 -5 6 -8 12 -9 20 -2 7
6 17 7 21 3 5 -4 5 -1 1 6 -9 15 -13 15 -21 2z"/>
<path d="M1380 1700 c0 -5 5 -10 11 -10 5 0 7 5 4 10 -3 6 -8 10 -11 10 -2 0
-4 -4 -4 -10z"/>
<path d="M1700 1700 c0 -5 5 -10 11 -10 5 0 7 5 4 10 -3 6 -8 10 -11 10 -2 0
-4 -4 -4 -10z"/>
<path d="M870 1689 c0 -5 5 -7 10 -4 6 3 10 8 10 11 0 2 -4 4 -10 4 -5 0 -10
-5 -10 -11z"/>
<path d="M1350 1689 c0 -5 5 -7 10 -4 6 3 10 8 10 11 0 2 -4 4 -10 4 -5 0 -10
-5 -10 -11z"/>
<path d="M1670 1689 c0 -5 5 -7 10 -4 6 3 10 8 10 11 0 2 -4 4 -10 4 -5 0 -10
-5 -10 -11z"/>
<path d="M345 1596 c-23 -25 -26 -40 -4 -19 12 12 21 24 18 27 -2 2 -9 -1 -14
-8z"/>
<path d="M326 1515 c-9 -26 -7 -32 5 -12 6 10 9 21 6 23 -2 3 -7 -2 -11 -11z"/>
<path d="M917 1409 c4 -13 8 -18 11 -10 2 7 -1 18 -6 23 -8 8 -9 4 -5 -13z"/>
<path d="M1077 1409 c4 -13 8 -18 11 -10 2 7 -1 18 -6 23 -8 8 -9 4 -5 -13z"/>
<path d="M1237 1409 c4 -13 8 -18 11 -10 2 7 -1 18 -6 23 -8 8 -9 4 -5 -13z"/>
<path d="M330 1200 c-8 -16 -8 -18 5 -14 8 3 12 11 8 17 -4 6 0 8 10 4 9 -3
18 -3 21 1 3 4 -4 9 -15 9 -10 1 -24 -7 -29 -17z"/>
<path d="M763 1133 c-7 -3 -13 -9 -13 -15 0 -7 5 -6 14 1 11 9 15 9 19 -1 4
-9 6 -9 6 -1 1 15 -10 22 -26 16z"/>
<path d="M975 1129 c-10 -15 3 -25 16 -12 7 7 7 13 1 17 -6 3 -14 1 -17 -5z"/>
<path d="M1455 1129 c-10 -15 3 -25 16 -12 7 7 7 13 1 17 -6 3 -14 1 -17 -5z"/>
<path d="M325 1120 c3 -5 8 -10 11 -10 2 0 4 5 4 10 0 6 -5 10 -11 10 -5 0 -7
-4 -4 -10z"/>
<path d="M370 1121 c0 -6 5 -11 11 -11 5 0 7 -5 3 -12 -5 -8 -11 -6 -19 5 -10
14 -12 10 -12 -22 0 -35 1 -37 17 -22 9 9 15 18 13 20 -1 2 2 10 7 16 7 9 6
16 -5 25 -10 9 -15 9 -15 1z"/>
<path d="M890 1118 c0 -4 4 -8 9 -8 6 0 12 4 15 8 3 5 -1 9 -9 9 -8 0 -15 -4
-15 -9z"/>
<path d="M1210 1118 c0 -4 4 -8 9 -8 6 0 12 4 15 8 3 5 -1 9 -9 9 -8 0 -15 -4
-15 -9z"/>
<path d="M1690 1118 c0 -4 4 -8 9 -8 6 0 12 4 15 8 3 5 -1 9 -9 9 -8 0 -15 -4
-15 -9z"/>
<path d="M2126 1118 c3 -5 10 -6 15 -3 13 9 11 12 -6 12 -8 0 -12 -4 -9 -9z"/>
<path d="M326 1035 c-9 -26 -7 -32 5 -12 6 10 9 21 6 23 -2 3 -7 -2 -11 -11z"/>
<path d="M685 1041 c-3 -5 -2 -12 3 -15 5 -3 9 1 9 9 0 17 -3 19 -12 6z"/>
<path d="M348 953 c7 -3 16 -2 19 1 4 3 -2 6 -13 5 -11 0 -14 -3 -6 -6z"/>
<path d="M690 935 c-7 -9 -11 -17 -9 -20 3 -2 10 5 17 15 14 24 10 26 -8 5z"/>
<path d="M334 928 c2 -7 9 -14 17 -14 8 -1 20 -2 27 -3 7 0 11 -5 7 -11 -3 -5
-13 -6 -22 -3 -11 4 -8 -2 8 -20 24 -28 41 -38 19 -12 -9 11 -9 19 -2 28 9 10
6 17 -8 30 -22 19 -34 22 -25 7 3 -5 2 -10 -4 -10 -5 0 -12 5 -14 10 -3 6 -4
5 -3 -2z"/>
<path d="M348 793 c7 -3 16 -2 19 1 4 3 -2 6 -13 5 -11 0 -14 -3 -6 -6z"/>
<path d="M334 768 c2 -7 9 -14 17 -14 8 -1 20 -2 27 -3 7 0 11 -5 7 -11 -3 -5
-13 -6 -22 -3 -11 4 -8 -2 8 -20 24 -28 41 -38 19 -12 -9 11 -9 19 -2 28 9 10
6 17 -8 30 -22 19 -34 22 -25 7 3 -5 2 -10 -4 -10 -5 0 -12 5 -14 10 -3 6 -4
5 -3 -2z"/>
<path d="M690 695 c-6 -8 -10 -19 -8 -24 1 -6 8 1 15 14 13 28 11 31 -7 10z"/>
<path d="M682 634 c-7 -8 -8 -14 -3 -14 10 0 25 19 20 25 -2 1 -10 -3 -17 -11z"/>
<path d="M360 605 c-7 -9 -8 -15 -2 -15 5 0 12 7 16 15 3 8 4 15 2 15 -2 0 -9
-7 -16 -15z"/>
<path d="M682 546 c7 -8 15 -12 17 -11 5 6 -10 25 -20 25 -5 0 -4 -6 3 -14z"/>
<path d="M682 474 c-7 -8 -8 -14 -3 -14 10 0 25 19 20 25 -2 1 -10 -3 -17 -11z"/>
<path d="M330 400 c-8 -16 -8 -18 5 -14 8 3 12 11 8 17 -4 6 0 8 10 4 9 -3 18
-3 21 1 3 4 -4 9 -15 9 -10 1 -24 -7 -29 -17z"/>
<path d="M682 386 c7 -8 15 -12 17 -11 5 6 -10 25 -20 25 -5 0 -4 -6 3 -14z"/>
<path d="M682 314 c-7 -8 -8 -14 -3 -14 10 0 25 19 20 25 -2 1 -10 -3 -17 -11z"/>
<path d="M682 226 c7 -8 15 -12 17 -11 5 6 -10 25 -20 25 -5 0 -4 -6 3 -14z"/>
<path d="M330 144 c0 -3 10 -14 22 -23 15 -12 18 -20 10 -25 -7 -4 -12 -3 -12
2 0 6 -8 13 -17 16 -14 6 -13 2 4 -15 21 -21 21 -23 5 -36 -16 -13 -15 -13 3
-11 12 2 19 -2 18 -10 -2 -6 3 -11 10 -10 6 2 11 -2 10 -9 -1 -6 3 -10 10 -9
7 1 13 6 13 11 1 6 -2 9 -6 8 -4 -1 -16 7 -26 19 -18 20 -18 21 -1 15 15 -6
16 -4 7 13 -7 12 -7 21 0 25 5 3 10 12 10 18 0 7 -4 6 -10 -3 -5 -8 -10 -10
-10 -5 0 6 -9 16 -20 23 -11 7 -20 9 -20 6z"/>
</g>
</svg>
