<?xml version="1.0" encoding="iso-8859-1"?>
<!-- Generator: Adobe Illustrator 19.0.0, SVG Export Plug-In . SVG Version: 6.00 Build 0)  -->
<svg version="1.1" id="Layer_1" xmlns="http://www.w3.org/2000/svg" xmlns:xlink="http://www.w3.org/1999/xlink" x="0px" y="0px"
	 viewBox="0 0 512 512" style="enable-background:new 0 0 512 512;" xml:space="preserve">
<g>
	<g>
		<path d="M460.227,386.359l-1.828-0.516c-26.469-7.125-35.422-13.938-47.203-18.422c-24.797-9.453-38.703-17.328-46.5-23.312
			l3.719-2.406l-11.781-46.141c21.516-29.477,36.781-65.875,36.906-103.562h4.406v-0.008h6.609c5.859,0,8.406-4.234,5.656-9.414
			c0,0-3.25-6.117-12.266-14.242v-15.727c0-74.477-58.562-135.547-130.5-141.469c0.016-0.156,0.031-0.312,0.031-0.477
			C267.477,4.773,262.695,0,256.805,0s-10.656,4.773-10.656,10.664c0,0.125,0,0.242,0.016,0.359
			c-72.672,5.133-132.109,66.555-132.109,141.586v15.727c-9.016,8.125-12.266,14.242-12.266,14.242
			c-2.75,5.18-0.203,9.414,5.656,9.414h6.609V192h4.406c0.125,37.688,15.391,74.086,36.906,103.547l-11.781,46.156l3.719,2.406
			c-7.797,5.984-21.703,13.859-46.5,23.312c-11.781,4.484-20.734,11.297-47.203,18.422l-1.828,0.516
			c-24.094,7.969-40.297,30.312-40.297,55.531V512h95.953h148.578h150.094h94.422v-70.109
			C500.523,416.672,484.32,394.328,460.227,386.359z M135.398,152.609c-0.001-16.211,3.234-31.968,9.609-46.836
			c6.156-14.352,14.953-27.266,26.156-38.398c11.172-11.102,24.125-19.82,38.484-25.914C224.43,35.18,240.023,32,255.992,32
			c15.984,0,31.578,3.18,46.359,9.461c14.359,6.094,27.312,14.812,38.484,25.914c11.203,11.133,20,24.047,26.156,38.398
			c6.391,14.867,9.625,30.625,9.625,46.828v0.711C353.352,140.359,315.57,128,256.008,128c-59.578,0-97.359,12.359-120.609,25.312
			V152.609z M363.866,170.664H148.133c11.219-5.93,24.438-10.711,39.312-14.219c20.031-4.719,43.109-7.109,68.562-7.109
			c25.438,0,48.516,2.391,68.547,7.109C339.429,159.953,352.648,164.734,363.866,170.664z M139.788,192h232.423
			c-0.156,35-16.109,73.141-43.844,104.75c-12.234,13.969-25.969,25.625-39.672,33.781c-12.25,7.25-23.859,11.25-32.688,11.25
			c-8.844,0-20.453-4-32.703-11.25c-13.703-8.156-27.422-19.812-39.672-33.781C155.898,265.141,139.944,226.992,139.788,192z
			 M345.367,405.344l26.703,21.312H141.633l26.688-21.312H345.367z M224.82,368.875l-56.766-36.75l2.922-11.5l12.719,6.656
			c16.171,14.813,33.468,25.813,49.531,31.5L224.82,368.875z M239.977,384l16.016-19.234L272.023,384H239.977z M278.773,358.781
			c16.062-5.688,33.359-16.688,49.547-31.5l12.688-6.656l2.938,11.5l-56.766,36.75L278.773,358.781z M107.523,426.656h-0.094v64
			H32.805V441.89c0-15.906,10.172-29.984,25.328-35.156l1.203-0.359c19.938-5.359,30.953-10.625,39.812-14.875
			c3.422-1.641,6.375-3.062,9.25-4.156c18.781-7.141,43.109-17.547,57.547-31.156L208.93,384h-48.078l-53.328,42.625V426.656z
			 M384.758,490.656h-128.75h-127.25V448h256V490.656z M406.101,490.656v-19.094h0.078v-44.938L352.852,384H303.07l42.984-27.828
			c14.438,13.625,38.781,24.031,57.562,31.188c2.859,1.078,5.812,2.5,9.234,4.141c8.859,4.25,19.875,9.516,39.828,14.875
			l1.188,0.359c15.156,5.172,25.328,19.25,25.328,35.156v48.765H406.101z"/>
	</g>
</g>
<g>
	<g>
		<path d="M256.805,53.336c-17.672,0-32,14.32-32,32c0,17.672,14.328,32,32,32s32-14.328,32-32
			C288.805,67.656,274.477,53.336,256.805,53.336z M256.805,96c-5.875,0-10.672-4.781-10.672-10.664s4.797-10.672,10.672-10.672
			c5.891,0,10.672,4.789,10.672,10.672S262.695,96,256.805,96z"/>
	</g>
</g>
<g>
</g>
<g>
</g>
<g>
</g>
<g>
</g>
<g>
</g>
<g>
</g>
<g>
</g>
<g>
</g>
<g>
</g>
<g>
</g>
<g>
</g>
<g>
</g>
<g>
</g>
<g>
</g>
<g>
</g>
</svg>
